<svg width="24" height="24" viewBox="0 0 24 24" fill="none" xmlns="http://www.w3.org/2000/svg">
<path d="M16 2H6C5.46957 2 4.96086 2.21071 4.58579 2.58579C4.21071 2.96086 4 3.46957 4 4V20C4 20.5304 4.21071 21.0391 4.58579 21.4142C4.96086 21.7893 5.46957 22 6 22H18C18.5304 22 19.0391 21.7893 19.4142 21.4142C19.7893 21.0391 20 20.5304 20 20V7" stroke="#DBDAE2" stroke-width="1.6" stroke-linecap="round" stroke-linejoin="round"/>
<path d="M15 2H18C18.5304 2 19.0391 2.21071 19.4142 2.58579C19.7893 2.96086 20 3.46957 20 4V7" stroke="#DBDAE2" stroke-width="1.6" stroke-linecap="round" stroke-linejoin="round"/>
<path d="M9 8H8" stroke="#DBDAE2" stroke-width="1.6" stroke-linecap="round" stroke-linejoin="round"/>
<path d="M16 8H12" stroke="#DBDAE2" stroke-width="1.6" stroke-linecap="round" stroke-linejoin="round"/>
<path d="M9 12H8" stroke="#DBDAE2" stroke-width="1.6" stroke-linecap="round" stroke-linejoin="round"/>
<path d="M16 12H12" stroke="#DBDAE2" stroke-width="1.6" stroke-linecap="round" stroke-linejoin="round"/>
<path d="M9 16H8" stroke="#DBDAE2" stroke-width="1.6" stroke-linecap="round" stroke-linejoin="round"/>
<path d="M16 16H12" stroke="#DBDAE2" stroke-width="1.6" stroke-linecap="round" stroke-linejoin="round"/>
</svg>
